STARTFONT 2.1
FONT HAN-GB2312
SIZE 20 72 72
FONTBOUNDINGBOX 8 20 0 0
STARTPROPERTIES 1
BITCOUNT 8
ENDPROPERTIES
CHARS 27
STARTCHAR  00A4
ENCODING  164
SWIDTH  1000 0
DWIDTH  15 0
BBX  12 12 1 1
BITMAP
001000000000000000001000
10E0A080E0FFF0E080A0C000
0060FFFFFFC0C0FFFFFF6000
0080FFE030000030E0FF8000
00E0FF600000000060FFE000
00FFFF100000000010FFF000
00FFFF100000000010FFF000
00E0FF600000000060FFE000
0080FFE020000030E0FF8000
0060FFFFFFC0C0FFFFFF6000
10E0A080E0FFFFE080A0E000
001000000000000000001000
ENDCHAR
STARTCHAR  00A7
ENCODING  167
SWIDTH  1000 0
DWIDTH  8 0
BBX  6 15 1 -1
BITMAP
30C0F0F0C020
C0FFE0E0FFC0
FFFF1010FFFF
F0FF40008080
A0FFFFE06000
60FFFFFFFFA0
E0FF6060FFF0
FFFF1010FFFF
F0FFC0A0FFE0
60F0FFFFFF60
001060E0FFE0
F0F00010FFFF
F0FF3030FFF0
A0FFFFFFFFA0
0060A0A06000
ENDCHAR
STARTCHAR  00A8
ENCODING  168
SWIDTH  1000 0
DWIDTH  7 0
BBX  5 2 1 11
BITMAP
A0A000A0A0
FFFF00FFFF
ENDCHAR
STARTCHAR  00B0
ENCODING  176
SWIDTH  1000 0
DWIDTH  9 0
BBX  5 5 2 9
BITMAP
20C0FFC020
C0801080C0
FF100010FF
E0801080C0
20C0FFC020
ENDCHAR
STARTCHAR  00B1
ENCODING  177
SWIDTH  1000 0
DWIDTH  9 0
BBX  7 10 1 0
BITMAP
0000FFFF000000
0000FFFF000000
0000FFFF000000
FFFFFFFFFFFFFF
A0A0FFFFA0A0A0
0000FFFF000000
0000FFFF000000
00000000000000
A0A0A0A0A0A0A0
FFFFFFFFFFFFFF
ENDCHAR
STARTCHAR  00B7
ENCODING  183
SWIDTH  1000 0
DWIDTH  4 0
BBX  2 2 1 6
BITMAP
A0A0
FFFF
ENDCHAR
STARTCHAR  00E0
ENCODING  224
SWIDTH  1000 0
DWIDTH  8 0
BBX  7 14 1 0
BITMAP
10E0E000000000
0040FF30000000
00006040000000
00000000000000
20C0F0F0C02000
E0FFE0E0FFC000
FFFF1010FFFF00
60600040FFFF00
10A0F0FFFFFF00
C0FFA040FFFF00
FFFF0000FFFF00
FFFF1010FFFF00
E0FFE0E0FFFF00
60E0FFC0E0FF00
ENDCHAR
STARTCHAR  00E1
ENCODING  225
SWIDTH  1000 0
DWIDTH  8 0
BBX  7 14 1 0
BITMAP
000010F0A00000
000060E0100000
00006040000000
00000000000000
20C0F0F0C02000
E0FFE0E0FFC000
FFFF1010FFFF00
60600040FFFF00
1080E0FFFFFF00
C0FFA040FFFF00
FFFF0000FFFF00
FFFF1010FFFF00
E0FFE0E0FFFF00
60E0FFC0E0FF00
ENDCHAR
STARTCHAR  00E8
ENCODING  232
SWIDTH  1000 0
DWIDTH  8 0
BBX  6 14 1 0
BITMAP
0080F0100000
0010E0600000
000040600000
000000000000
20C0F0F0C030
C0FFE0E0FFE0
FFFF0010FFFF
FFFFA0A0FFFF
FFFFFFFFFFFF
FFFF00000000
FFFF0000E0E0
FFFF1010FFF0
C0FFE0E0FFC0
20C0F0F0C020
ENDCHAR
STARTCHAR  00E9
ENCODING  233
SWIDTH  1000 0
DWIDTH  8 0
BBX  6 14 1 0
BITMAP
000030FF6000
000080C00000
000080300000
000000000000
20C0F0F0C030
C0FFE0E0FFE0
FFFF0010FFFF
FFFFA0A0FFFF
FFFFFFFFFFFF
FFFF00000000
FFFF0000E0E0
FFFF1010FFF0
C0FFE0E0FFC0
20C0F0F0C020
ENDCHAR
STARTCHAR  00EA
ENCODING  234
SWIDTH  1000 0
DWIDTH  8 0
BBX  6 14 1 0
BITMAP
0060FFFF3000
10F080C0E000
60A00010A040
000000000000
20C0F0F0C030
C0FFE0E0FFE0
FFFF0010FFFF
FFFFA0A0FFFF
FFFFFFFFFFFF
FFFF00000000
FFFF0000E0E0
FFFF1010FFF0
C0FFE0E0FFC0
20C0F0F0C020
ENDCHAR
STARTCHAR  00EC
ENCODING  236
SWIDTH  1000 0
DWIDTH  4 0
BBX  3 14 0 0
BITMAP
80FF30
00A0A0
001020
000000
00FFFF
00FFFF
00FFFF
00FFFF
00FFFF
00FFFF
00FFFF
00FFFF
00FFFF
00FFFF
ENDCHAR
STARTCHAR  00ED
ENCODING  237
SWIDTH  1000 0
DWIDTH  4 0
BBX  3 14 1 0
BITMAP
10F0A0
80C000
201000
000000
FFFF00
FFFF00
FFFF00
FFFF00
FFFF00
FFFF00
FFFF00
FFFF00
FFFF00
FFFF00
ENDCHAR
STARTCHAR  00F2
ENCODING  242
SWIDTH  1000 0
DWIDTH  8 0
BBX  6 14 1 0
BITMAP
00A0F0100000
0010E0600000
000040600000
000000000000
20C0F0F0C020
C0FFE0E0FFC0
FFFF1010FFFF
FFFF0000FFFF
FFFF0000FFFF
FFFF0000FFFF
FFFF0000FFFF
FFFF1010FFFF
C0FFE0E0FFC0
20C0F0F0C020
ENDCHAR
STARTCHAR  00F3
ENCODING  243
SWIDTH  1000 0
DWIDTH  8 0
BBX  6 14 1 0
BITMAP
000010FF8000
000060E00000
000080400000
000000000000
20C0F0F0C020
C0FFE0E0FFC0
FFFF1010FFFF
FFFF0000FFFF
FFFF0000FFFF
FFFF0000FFFF
FFFF0000FFFF
FFFF1010FFFF
C0FFE0E0FFC0
20C0F0F0C020
ENDCHAR
STARTCHAR  00F7
ENCODING  247
SWIDTH  1000 0
DWIDTH  5 0
BBX  3 4 1 5
BITMAP
000000
304030
206020
100010
ENDCHAR
STARTCHAR  00F9
ENCODING  249
SWIDTH  1000 0
DWIDTH  8 0
BBX  6 14 1 0
BITMAP
00C0E0000000
0020F0400000
000010100000
000000000000
FFFF0000FFFF
FFFF0000FFFF
FFFF0000FFFF
FFFF0000FFFF
FFFF0000FFFF
FFFF0000FFFF
FFFF0000FFFF
FFFF0000FFFF
E0FFA0A0FFFF
40E0FFC0F0FF
ENDCHAR
STARTCHAR  00FA
ENCODING  250
SWIDTH  1000 0
DWIDTH  8 0
BBX  6 14 1 0
BITMAP
000010F0A000
000080E00000
000020100000
000000000000
FFFF0000FFFF
FFFF0000FFFF
FFFF0000FFFF
FFFF0000FFFF
FFFF0000FFFF
FFFF0000FFFF
FFFF0000FFFF
FFFF0000FFFF
E0FFA0A0FFFF
40E0FFC0F0FF
ENDCHAR
STARTCHAR  00FC
ENCODING  252
SWIDTH  1000 0
DWIDTH  8 0
BBX  6 13 1 0
BITMAP
00FFFF00FFFF
00A0A000A0A0
000000000000
FFFF0000FFFF
FFFF0000FFFF
FFFF0000FFFF
FFFF0000FFFF
FFFF0000FFFF
FFFF0000FFFF
FFFF0000FFFF
FFFF0000FFFF
E0FFA0A0FFFF
40E0FFC0F0FF
ENDCHAR
STARTCHAR  02C7
ENCODING  711
SWIDTH  1000 0
DWIDTH  7 0
BBX  7 3 0 11
BITMAP
00C0C00060F020
0020F0C0FF8000
00004080800000
ENDCHAR
STARTCHAR  2014
ENCODING  8212
SWIDTH  1000 0
DWIDTH  17 0
BBX  15 2 1 5
BITMAP
A0A0A0A0A0A0A0A0A0A0A0A0A0A0A0
FFFFFFFFFFFFFFFFFFFFFFFFFFFFFF
ENDCHAR
STARTCHAR  2018
ENCODING  8216
SWIDTH  1000 0
DWIDTH  4 0
BBX  2 4 1 10
BITMAP
8060
F010
FFFF
E0E0
ENDCHAR
STARTCHAR  2019
ENCODING  8217
SWIDTH  1000 0
DWIDTH  4 0
BBX  2 4 1 10
BITMAP
FFFF
A0FF
40A0
2010
ENDCHAR
STARTCHAR  201C
ENCODING  8220
SWIDTH  1000 0
DWIDTH  7 0
BBX  6 4 1 10
BITMAP
806000806000
F01000F01000
FFFF00FFFF00
E0E000E0E000
ENDCHAR
STARTCHAR  201D
ENCODING  8221
SWIDTH  1000 0
DWIDTH  7 0
BBX  6 4 0 10
BITMAP
00FFFF00FFFF
00A0FF00A0FF
0040A00040A0
002010002010
ENDCHAR
STARTCHAR  2026
ENCODING  8230
SWIDTH  1000 0
DWIDTH  18 0
BBX  10 2 4 0
BITMAP
A0A00000A0A00000A0A0
FFFF0000FFFF0000FFFF
ENDCHAR
STARTCHAR  2030
ENCODING  8240
SWIDTH  1000 0
DWIDTH  16 0
BBX  14 14 1 0
BITMAP
A0F0A000000030F0100000000000
FF20FF000000A080000000000000
FF00FF000020F020000000000000
FF00FF000080A000000000000000
FF00FF0010F04000000000000000
FF20FF0060C00000000000000000
A0F0A000E0600000000000000000
00000060E00080E0800080E0E060
000000C08000F040F000FF4040F0
000030F01000FF00FF00FF0000FF
0000A0800000FF00FF00FF0000FF
0020F0200000FF00FF00FF0000FF
0080A0000000FF20FF00FF2020F0
10F040000000A0F0A00080F0F080
ENDCHAR
ENDFONT
